<svg xmlns="http://www.w3.org/2000/svg" viewBox="0 0 195.81 184.23"><defs><style>.cls-1,.cls-2,.cls-3{fill-rule:evenodd;}.cls-2{fill:#fff;}.cls-3{fill:#ff7f00;}</style></defs><title>Recurso 1</title><g id="Capa_2" data-name="Capa 2"><g id="Capa_1-2" data-name="Capa 1"><path class="cls-1" d="M135.37,146.29a52.78,52.78,0,0,0,13.76-50.66l24.36-24.35a84.39,84.39,0,0,1-15.79,97.25l9.51,9.52A97.81,97.81,0,0,0,176,50c-13.89,13.89-28.56,28.72-42.29,42.45A39.36,39.36,0,0,1,81.5,144.65l-10,10a52.86,52.86,0,0,0,63.84-8.33M98,126.43a17.5,17.5,0,1,0-12.35-5.13A17.39,17.39,0,0,0,98,126.43ZM60.44,71.67a52.78,52.78,0,0,0-13.76,50.66L22.32,146.68a84.38,84.38,0,0,1,15.8-97.25L28.6,39.91A97.8,97.8,0,0,0,19.78,168c13.89-13.88,28.56-28.71,42.29-42.44a39.36,39.36,0,0,1,52.24-52.24l10-10a52.86,52.86,0,0,0-63.84,8.33Zm44,43.5a9,9,0,1,0-12.68,0,9,9,0,0,0,12.68,0Zm46.85,47a75.29,75.29,0,0,1-106.47,0q-2.43-2.42-4.59-5c10.56-10.56,21.11-21,31.71-31.62a30.94,30.94,0,0,1,42.71-42.71l22.1-22.11a61.84,61.84,0,0,0-99.26,60.66l-11,11A75.29,75.29,0,0,1,151.28,55.72c1.63,1.63,3.17,3.32,4.61,5.05-10.56,10.57-21.1,20.95-31.73,31.59a30.94,30.94,0,0,1-42.71,42.7l-22.1,22.11A61.81,61.81,0,0,0,159.86,109a62.33,62.33,0,0,0-1.65-14.25L169,83.87a75.39,75.39,0,0,1-17.76,78.31Z"/><path class="cls-2" d="M114.11,26.34V90a23.59,23.59,0,0,1,8.56,18.76A24.72,24.72,0,0,1,97.85,133.6a24.6,24.6,0,0,1-17.54-7.11,23.79,23.79,0,0,1-7.46-17.58,22.85,22.85,0,0,1,8.74-19V26.34H52.87c-7.7,0-11.71-5.95-11.71-13.17S45.17,0,52.87,0h92c7.7,0,11.71,5.94,11.71,13.17s-4,13.17-11.71,13.17Z"/><path class="cls-3" d="M105,108.41a7.85,7.85,0,0,1-2.18,5.47,6.93,6.93,0,0,1-5.28,2.37A7.81,7.81,0,0,1,92,114.06a6.92,6.92,0,0,1-2.36-5.28,7.76,7.76,0,0,1,2.18-5.46A6.93,6.93,0,0,1,97.12,101a7.77,7.77,0,0,1,7.65,7.65Zm4.92.19a12.56,12.56,0,0,0-21.4-8.93,12.56,12.56,0,1,0,17.76,17.76A12.21,12.21,0,0,0,109.87,108.6Zm85.87-95.43c0,4-1.52,6-4.55,6H107V93.66q8.55,5.28,8.56,15.12a17.14,17.14,0,0,1-5.1,12.47,16.93,16.93,0,0,1-12.57,5.19,17.49,17.49,0,0,1-12.57-5.1A16.75,16.75,0,0,1,80,108.78q-.18-10,8.74-15.12V19.18h-84c-3,0-4.55-2-4.55-6s1.52-6,4.55-6H191.19Q195.74,7.16,195.74,13.17Z"/><path class="cls-1" d="M97.28,100.76a7.65,7.65,0,1,1-7.65,7.65,7.65,7.65,0,0,1,7.65-7.65"/></g></g></svg>